<mxfile host="app.diagrams.net" modified="2022-05-06T02:33:55.074Z" agent="5.0 (Windows NT 10.0; Win64; x64) AppleWebKit/537.36 (KHTML, like Gecko) Chrome/101.0.4951.54 Safari/537.36" etag="7GepR0bBAxopw7-2d5RO" version="18.0.1" type="github">
  <diagram id="C5RBs43oDa-KdzZeNtuy" name="Page-1">
    <mxGraphModel dx="871" dy="450" grid="1" gridSize="11" guides="1" tooltips="1" connect="1" arrows="1" fold="1" page="1" pageScale="1" pageWidth="827" pageHeight="1169" math="0" shadow="0">
      <root>
        <mxCell id="WIyWlLk6GJQsqaUBKTNV-0" />
        <mxCell id="WIyWlLk6GJQsqaUBKTNV-1" parent="WIyWlLk6GJQsqaUBKTNV-0" />
        <mxCell id="C6C7-7U4LkIguzn4N1SW-57" style="edgeStyle=orthogonalEdgeStyle;rounded=0;orthogonalLoop=1;jettySize=auto;html=1;entryX=0;entryY=0.707;entryDx=0;entryDy=0;entryPerimeter=0;fontSize=13;" edge="1" parent="WIyWlLk6GJQsqaUBKTNV-1" source="C6C7-7U4LkIguzn4N1SW-43" target="C6C7-7U4LkIguzn4N1SW-53">
          <mxGeometry relative="1" as="geometry">
            <Array as="points">
              <mxPoint x="308" y="330" />
              <mxPoint x="308" y="313" />
            </Array>
          </mxGeometry>
        </mxCell>
        <mxCell id="C6C7-7U4LkIguzn4N1SW-43" value="playlist" style="swimlane;startSize=30;fontSize=13;" vertex="1" parent="WIyWlLk6GJQsqaUBKTNV-1">
          <mxGeometry x="154" y="279" width="110" height="110" as="geometry" />
        </mxCell>
        <mxCell id="C6C7-7U4LkIguzn4N1SW-44" value="IdPlayList&#xa;Ten&#xa;HinhNen&#xa;Icon" style="text;strokeColor=none;fillColor=none;align=left;verticalAlign=middle;spacingLeft=4;spacingRight=4;overflow=hidden;points=[[0,0.5],[1,0.5]];portConstraint=eastwest;rotatable=0;" vertex="1" parent="C6C7-7U4LkIguzn4N1SW-43">
          <mxGeometry y="30" width="110" height="80" as="geometry" />
        </mxCell>
        <mxCell id="C6C7-7U4LkIguzn4N1SW-50" value="theloai" style="swimlane;startSize=30;fontSize=13;" vertex="1" parent="WIyWlLk6GJQsqaUBKTNV-1">
          <mxGeometry x="528" y="279" width="110" height="110" as="geometry" />
        </mxCell>
        <mxCell id="C6C7-7U4LkIguzn4N1SW-51" value="IdTheLoai&#xa;TenTheLoai&#xa;HinhTheLoai" style="text;strokeColor=none;fillColor=none;align=left;verticalAlign=middle;spacingLeft=4;spacingRight=4;overflow=hidden;points=[[0,0.5],[1,0.5]];portConstraint=eastwest;rotatable=0;" vertex="1" parent="C6C7-7U4LkIguzn4N1SW-50">
          <mxGeometry y="30" width="121" height="80" as="geometry" />
        </mxCell>
        <mxCell id="C6C7-7U4LkIguzn4N1SW-52" value="baihat" style="swimlane;fontStyle=0;childLayout=stackLayout;horizontal=1;startSize=30;horizontalStack=0;resizeParent=1;resizeParentMax=0;resizeLast=0;collapsible=1;marginBottom=0;fontSize=15;" vertex="1" parent="WIyWlLk6GJQsqaUBKTNV-1">
          <mxGeometry x="352" y="242" width="90" height="184" as="geometry" />
        </mxCell>
        <mxCell id="C6C7-7U4LkIguzn4N1SW-53" value="IdBaiHat&#xa;IdTheLoai&#xa;IdPlayList&#xa;" style="text;strokeColor=none;fillColor=none;align=left;verticalAlign=middle;spacingLeft=4;spacingRight=4;overflow=hidden;points=[[0,0.5],[1,0.5]];portConstraint=eastwest;rotatable=0;fontSize=13;" vertex="1" parent="C6C7-7U4LkIguzn4N1SW-52">
          <mxGeometry y="30" width="90" height="58" as="geometry" />
        </mxCell>
        <mxCell id="C6C7-7U4LkIguzn4N1SW-54" value="TenBaiHat&#xa;HinhBaiHat&#xa;CaSi&#xa;LinkBaiHat&#xa;LoiBaiHat" style="text;strokeColor=none;fillColor=none;align=left;verticalAlign=middle;spacingLeft=4;spacingRight=4;overflow=hidden;points=[[0,0.5],[1,0.5]];portConstraint=eastwest;rotatable=0;fontSize=13;" vertex="1" parent="C6C7-7U4LkIguzn4N1SW-52">
          <mxGeometry y="88" width="90" height="96" as="geometry" />
        </mxCell>
        <mxCell id="C6C7-7U4LkIguzn4N1SW-56" style="edgeStyle=orthogonalEdgeStyle;rounded=0;orthogonalLoop=1;jettySize=auto;html=1;entryX=-0.017;entryY=0.325;entryDx=0;entryDy=0;entryPerimeter=0;fontSize=13;exitX=1;exitY=0.5;exitDx=0;exitDy=0;" edge="1" parent="WIyWlLk6GJQsqaUBKTNV-1" source="C6C7-7U4LkIguzn4N1SW-53" target="C6C7-7U4LkIguzn4N1SW-51">
          <mxGeometry relative="1" as="geometry">
            <mxPoint x="462" y="297" as="sourcePoint" />
            <Array as="points">
              <mxPoint x="442" y="297" />
              <mxPoint x="488" y="297" />
              <mxPoint x="488" y="335" />
            </Array>
          </mxGeometry>
        </mxCell>
      </root>
    </mxGraphModel>
  </diagram>
</mxfile>
